<svg aria-hidden="true" style="position: absolute; width: 0; height: 0; overflow: hidden;" version="1.1" xmlns="http://www.w3.org/2000/svg" xmlns:xlink="http://www.w3.org/1999/xlink">
<defs>
<symbol id="icon-facebook-icn" viewBox="0 0 32 32">
<path d="M21.33 5.314h2.92v-5.088c-1.238-0.144-2.672-0.226-4.125-0.226-0.046 0-0.092 0-0.138 0l0.007-0c-4.212 0-7.094 2.65-7.094 7.52v4.48h-4.65v5.688h4.648v14.312h5.698v-14.31h4.46l0.708-5.69h-5.17v-3.92c0.002-1.644 0.444-2.768 2.736-2.768z"></path>
</symbol>
<symbol id="icon-feature1-icn" viewBox="0 0 32 32">
<path d="M30.773 22.098l-8.443-8.505 0.937-4.615c0.242 0.094 0.499 0.143 0.759 0.145h0.006c0.008 0 0.017 0 0.026 0 1.192 0 2.159-0.967 2.159-2.159s-0.967-2.159-2.159-2.159c-1.192 0-2.159 0.967-2.159 2.159 0 0.26 0.046 0.508 0.13 0.739l-0.005-0.015-4.96 0.605-8.091-8.133c-0.096-0.098-0.229-0.159-0.376-0.16h-0c-0.14 0.001-0.274 0.057-0.373 0.155l-1.513 1.504c-0.097 0.097-0.156 0.23-0.156 0.377s0.060 0.281 0.156 0.377v0l0.814 0.825c-1.143 2.062-1.816 4.522-1.816 7.139 0 4.106 1.656 7.825 4.336 10.526l-0.001-0.001c0.042 0.041 0.091 0.073 0.146 0.098-0.032 0.164-0.051 0.353-0.052 0.546v6.188h-6.4c-1.472 0.001-2.666 1.194-2.667 2.666v1.067c0 0.295 0.239 0.533 0.534 0.533h24.534c0.294 0 0.534-0.239 0.534-0.534v-1.067c-0.002-1.472-1.195-2.665-2.667-2.666h-6.4v-2.742c1.003 0.21 2.024 0.317 3.049 0.32 2.58-0.003 5.005-0.663 7.117-1.822l-0.077 0.039 0.819 0.823c0.099 0.101 0.235 0.159 0.377 0.16 0.14-0.001 0.274-0.056 0.373-0.155l1.512-1.505c0.096-0.097 0.156-0.23 0.156-0.377s-0.060-0.28-0.156-0.377v0zM23.28 6.233c0.193-0.192 0.458-0.31 0.752-0.31 0.589 0 1.067 0.478 1.067 1.066s-0.477 1.066-1.067 1.066c-0 0-0 0-0 0h-0.003c-0.587-0.003-1.061-0.479-1.061-1.066 0-0.296 0.12-0.563 0.315-0.756l0-0h-0.002zM22.024 9.738l-0.599 2.945-1.175-1.182 1.774-1.764zM21.419 8.836l-1.92 1.909-1.485-1.493 3.405-0.415zM24.004 28.8c0.884 0 1.6 0.716 1.6 1.6v0 0.534h-23.466v-0.534c0-0.884 0.716-1.6 1.6-1.6h20.267zM16.538 26.666v1.067h-5.334v-1.067h5.334zM11.204 25.6v-4.053c0-1.294 1.197-2.346 2.666-2.346s2.667 1.053 2.667 2.346v4.053h-5.334zM17.604 23.904v-2.357c0-1.882-1.675-3.413-3.733-3.413-0.018-0-0.038-0-0.059-0-1.353 0-2.54 0.707-3.213 1.771l-0.009 0.016c-2.36-2.482-3.811-5.846-3.811-9.549 0-2.314 0.567-4.496 1.569-6.414l-0.036 0.077 18.602 18.709c-1.823 0.947-3.98 1.502-6.266 1.502-1.079 0-2.128-0.124-3.136-0.357l0.093 0.018zM28.893 23.221l-21.057-21.18 0.755-0.752 7.935 7.98c0.003 0 0.006 0.007 0.009 0.009l13.114 13.191-0.757 0.752z"></path>
<path fill="#4d5ae5" style="fill: var(--color3, #4d5ae5)" d="M13.876 20.267h-0.005c-0.001 0-0.002 0-0.002 0-0.884 0-1.6 0.716-1.6 1.6s0.715 1.599 1.597 1.6h0.005c0.001 0 0.002 0 0.002 0 0.884 0 1.6-0.716 1.6-1.6s-0.715-1.599-1.597-1.6h-0zM14.249 22.245c-0.096 0.096-0.229 0.155-0.376 0.155-0.295 0-0.534-0.239-0.534-0.534 0-0.001 0-0.001 0-0.002v0c0.002-0.292 0.238-0.529 0.53-0.53h0c0.293 0.002 0.531 0.24 0.531 0.534 0 0.148-0.060 0.281-0.157 0.378l-0 0h0.005z"></path>
</symbol>
<symbol id="icon-feature2-icn" viewBox="0 0 32 32">
<path d="M31.297 15.301c-0.002-8.452-6.855-15.303-15.308-15.301s-15.303 6.855-15.301 15.308c0.002 6.788 4.422 12.543 10.541 14.545l0.108 0.031c0.060 0.019 0.123 0.029 0.187 0.029 0.121 0 0.239-0.032 0.342-0.093 0.135-0.080 0.236-0.207 0.284-0.357l3.865-12.25c1.054-0.004 1.906-0.859 1.906-1.913 0-1.057-0.856-1.913-1.913-1.913-0.303 0-0.59 0.070-0.844 0.196l0.011-0.005-5.106-5.107c-0.115-0.115-0.275-0.187-0.451-0.187-0.352 0-0.638 0.285-0.638 0.638 0 0.176 0.071 0.336 0.187 0.451v0l5.104 5.109c-0.121 0.241-0.191 0.525-0.191 0.826 0 0.601 0.283 1.137 0.723 1.48l0.004 0.003-3.683 11.673c-7.278-2.681-11.005-10.754-8.323-18.032 2.681-7.277 10.755-11.005 18.032-8.323s11.004 10.755 8.323 18.032c-1.345 3.581-4.004 6.406-7.374 7.938l-0.088 0.036-0.398-1.875c-0.063-0.291-0.318-0.505-0.624-0.505-0.163 0-0.312 0.061-0.425 0.162l0.001-0.001-3.837 3.425c-0.132 0.117-0.214 0.287-0.214 0.477 0 0.283 0.185 0.524 0.441 0.607l0.005 0.001 4.899 1.564c0.058 0.020 0.126 0.031 0.196 0.031 0.352 0 0.637-0.285 0.637-0.637 0-0.047-0.005-0.093-0.015-0.137l0.001 0.004-0.391-1.839c5.528-2.374 9.329-7.772 9.329-14.057 0-0.011 0-0.023-0-0.034v0.002zM15.992 14.664c0.352 0 0.638 0.286 0.638 0.638s-0.286 0.638-0.638 0.638v0c-0.352 0-0.638-0.286-0.638-0.638s0.286-0.638 0.638-0.638v0zM18.093 29.527l2.184-1.948 0.603 2.84-2.787-0.892z"></path>
<path fill="#4d5ae5" style="fill: var(--color3, #4d5ae5)" d="M15.354 3.185v1.275c0 0.352 0.285 0.638 0.637 0.638s0.638-0.285 0.638-0.638v-1.275c-0.014-0.341-0.294-0.613-0.637-0.613s-0.624 0.271-0.637 0.611l-0 0.001zM3.876 14.664c-0.352 0-0.637 0.285-0.637 0.637s0.285 0.637 0.638 0.637h1.275c0.352 0 0.638-0.285 0.638-0.637s-0.285-0.637-0.638-0.637h-1.275zM28.108 15.939c0.352 0 0.637-0.285 0.637-0.637s-0.285-0.637-0.637-0.637h-1.275c-0.341 0.014-0.613 0.294-0.613 0.637s0.271 0.624 0.611 0.637l0.001 0h1.275z"></path>
</symbol>
<symbol id="icon-feature3-icn" viewBox="0 0 32 32">
<path fill="#4d5ae5" style="fill: var(--color3, #4d5ae5)" d="M14.925 14.965h1.066v4.797h-1.066v-4.797zM19.19 17.097h1.066v2.665h-1.066v-2.665zM10.661 18.696h1.066v1.066h-1.066v-1.066zM7.463 18.163h1.066v1.599h-1.066v-1.599z"></path>
<path d="M1.599 28.291h25.587c0 0 0 0 0 0 0.883 0 1.599-0.716 1.599-1.599v0-2.133c0-0.883-0.716-1.599-1.599-1.599-0 0-0 0-0.001 0h-0.533v-13.293l3.028-2.868c0.207 0.105 0.452 0.166 0.711 0.166 0.888 0 1.608-0.72 1.608-1.608s-0.72-1.608-1.608-1.608c-0.888 0-1.608 0.72-1.608 1.608 0 0.247 0.055 0.48 0.155 0.689l-0.004-0.010-2.282 2.163v-1.23c0-0.883-0.716-1.599-1.599-1.599v0h-21.322c-0 0-0 0-0.001 0-0.883 0-1.599 0.716-1.599 1.599 0 0 0 0 0 0.001v-0 15.991h-0.533c-0.883 0-1.599 0.716-1.599 1.599 0 0 0 0 0 0.001v-0 2.133c0 0.883 0.716 1.599 1.599 1.599v0zM30.384 4.837c0.294 0 0.533 0.239 0.533 0.533s-0.239 0.533-0.533 0.533v0c-0.294 0-0.533-0.239-0.533-0.533s0.239-0.533 0.533-0.533v0zM3.199 6.969c0-0.295 0.239-0.534 0.533-0.534h21.322c0.294 0 0.533 0.239 0.533 0.534v2.238l-1.066 1.013v-2.185c0-0.295-0.238-0.533-0.533-0.533h-19.19c-0.295 0-0.533 0.239-0.533 0.533v13.326c0 0.295 0.239 0.534 0.533 0.534h19.19c0.294 0 0.533-0.239 0.533-0.534v-9.674l1.066-1.010v12.283h-22.388v-15.991zM7.996 13.899c-0.001 0-0.003 0-0.005 0-0.883 0-1.599 0.716-1.599 1.599s0.716 1.599 1.599 1.599c0.432 0 0.824-0.171 1.112-0.45l-0 0 1.853 0.93c0.215 0.108 0.476 0.057 0.636-0.123l3.938-4.431 3.872 2.902c0.208 0.156 0.498 0.139 0.686-0.040l3.365-3.188v8.131h-18.123v-12.26h18.124v2.66l-3.772 3.572-3.905-2.928c-0.088-0.066-0.199-0.106-0.319-0.106-0.158 0-0.3 0.069-0.398 0.178l-0 0.001-3.993 4.493-1.493-0.746c0.011-0.064 0.018-0.129 0.021-0.194-0-0.883-0.716-1.599-1.599-1.599h-0zM8.529 15.498c0 0.294-0.239 0.533-0.533 0.533s-0.533-0.239-0.533-0.533v0c0-0.294 0.239-0.533 0.533-0.533s0.533 0.239 0.533 0.533v0zM11.727 24.026h5.331v0.533c0 0.294-0.238 0.533-0.533 0.533h-4.264c-0.294 0-0.533-0.239-0.533-0.533v0-0.533zM1.066 24.56c0-0.294 0.239-0.533 0.533-0.533h9.062v0.533c0 0 0 0 0 0 0 0.883 0.716 1.599 1.599 1.599h4.265c0.883 0 1.599-0.716 1.599-1.599 0-0 0-0 0-0.001v0-0.533h9.061c0.295 0 0.534 0.238 0.534 0.533v2.133c0 0.294-0.239 0.533-0.534 0.533h-25.586c-0.294 0-0.533-0.239-0.533-0.533v0-2.133z"></path>
</symbol>
<symbol id="icon-feature4-icn" viewBox="0 0 32 32">
<path fill="#4d5ae5" style="fill: var(--color3, #4d5ae5)" d="M31.974 4.524c-0.063-0.193-0.229-0.333-0.43-0.363l-1.91-0.278-0.855-1.731c-0.179-0.365-0.777-0.365-0.956 0l-0.855 1.731-1.91 0.278c-0.201 0.029-0.367 0.17-0.431 0.363-0.062 0.193-0.011 0.405 0.135 0.547l1.383 1.348-0.326 1.903c-0.034 0.2 0.048 0.402 0.212 0.522 0.166 0.121 0.382 0.135 0.562 0.040l1.709-0.899 1.709 0.899c0.078 0.041 0.164 0.061 0.249 0.061 0.11 0 0.221-0.034 0.314-0.102 0.164-0.119 0.246-0.322 0.212-0.522l-0.326-1.903 1.383-1.348c0.145-0.142 0.197-0.354 0.135-0.547zM29.511 5.851c-0.125 0.122-0.183 0.299-0.153 0.472l0.191 1.114-1-0.526c-0.078-0.041-0.163-0.061-0.249-0.061s-0.17 0.020-0.249 0.061l-1.001 0.526 0.191-1.114c0.030-0.173-0.028-0.349-0.153-0.472l-0.81-0.789 1.119-0.163c0.174-0.025 0.324-0.134 0.402-0.292l0.5-1.013 0.5 1.013c0.078 0.157 0.228 0.267 0.402 0.292l1.119 0.163-0.809 0.789z"></path>
<path fill="#4d5ae5" style="fill: var(--color3, #4d5ae5)" d="M26.134 20.522h-1.067v1.067h1.067v-1.067z"></path>
<path fill="#4d5ae5" style="fill: var(--color3, #4d5ae5)" d="M26.134 22.656h-1.067v1.067h1.067v-1.067z"></path>
<path fill="#4d5ae5" style="fill: var(--color3, #4d5ae5)" d="M27.2 21.589h-1.067v1.067h1.067v-1.067z"></path>
<path fill="#4d5ae5" style="fill: var(--color3, #4d5ae5)" d="M25.067 21.589h-1.067v1.067h1.067v-1.067z"></path>
<path fill="#4d5ae5" style="fill: var(--color3, #4d5ae5)" d="M22.4 26.389h-1.067v1.067h1.067v-1.067z"></path>
<path fill="#4d5ae5" style="fill: var(--color3, #4d5ae5)" d="M22.4 28.522h-1.067v1.067h1.067v-1.067z"></path>
<path fill="#4d5ae5" style="fill: var(--color3, #4d5ae5)" d="M23.467 27.456h-1.067v1.067h1.067v-1.067z"></path>
<path fill="#4d5ae5" style="fill: var(--color3, #4d5ae5)" d="M21.333 27.456h-1.067v1.067h1.067v-1.067z"></path>
<path fill="#4d5ae5" style="fill: var(--color3, #4d5ae5)" d="M16 24.256h-1.067v1.067h1.067v-1.067z"></path>
<path fill="#4d5ae5" style="fill: var(--color3, #4d5ae5)" d="M16 26.389h-1.067v1.067h1.067v-1.067z"></path>
<path fill="#4d5ae5" style="fill: var(--color3, #4d5ae5)" d="M17.067 25.322h-1.067v1.067h1.067v-1.067z"></path>
<path fill="#4d5ae5" style="fill: var(--color3, #4d5ae5)" d="M14.933 25.322h-1.067v1.067h1.067v-1.067z"></path>
<path fill="#4d5ae5" style="fill: var(--color3, #4d5ae5)" d="M5.867 6.122h-1.067v1.067h1.067v-1.067z"></path>
<path fill="#4d5ae5" style="fill: var(--color3, #4d5ae5)" d="M5.867 8.255h-1.067v1.067h1.067v-1.067z"></path>
<path fill="#4d5ae5" style="fill: var(--color3, #4d5ae5)" d="M6.933 7.189h-1.067v1.067h1.067v-1.067z"></path>
<path fill="#4d5ae5" style="fill: var(--color3, #4d5ae5)" d="M4.8 7.189h-1.067v1.067h1.067v-1.067z"></path>
<path d="M24.715 14.159c-0.287-0.388-0.709-0.637-1.188-0.705-0.481-0.068-0.956 0.058-1.34 0.352l-1.252 0.96-1.898 1.417-1.358-0.541c2.421-1.086 4.114-3.508 4.114-6.32 0-3.823-3.123-6.933-6.961-6.933s-6.961 3.11-6.961 6.933c0 1.386 0.414 2.674 1.12 3.758l-2.764-0.024c-0.002 0-0.003 0-0.005 0-0.009 0-0.015 0.004-0.023 0.005-0.053 0.002-0.105 0.013-0.155 0.031-0.013 0.005-0.026 0.008-0.038 0.013-0.006 0.003-0.013 0.003-0.019 0.006l-3.233 1.596c-0.001 0-0.001 0-0.001 0.001l-1.893 0.911c-0.021 0.009-0.042 0.021-0.063 0.035-0.755 0.502-1.012 1.489-0.598 2.295 0.22 0.429 0.595 0.745 1.056 0.889 0.178 0.055 0.359 0.083 0.539 0.083 0.29 0 0.577-0.071 0.839-0.211l1.388-0.738 2.264-1.169 1.357-0.008-5.442 5.416c-0.001 0.001-0.001 0.001-0.002 0.001l-1.339 1.333c-0.316 0.315-0.49 0.732-0.49 1.178s0.174 0.863 0.49 1.179c0.325 0.323 0.752 0.485 1.179 0.485s0.854-0.162 1.18-0.485l1.314-1.309 1.741-1.3 0.901 0.897-1.762 1.754c-0 0.001-0.001 0.001-0.002 0.001l-1.339 1.333c-0.316 0.315-0.49 0.732-0.49 1.178s0.174 0.863 0.49 1.179c0.325 0.323 0.753 0.485 1.18 0.485s0.855-0.162 1.18-0.485l3.482-3.467c0.001-0.001 0.001-0.001 0.001-0.002l1.010-1-0.004-0.004c0.006-0.006 0.015-0.009 0.022-0.015l5.166-5.658 3.471 0.494c0.025 0.004 0.050 0.005 0.075 0.005 0.065 0 0.127-0.015 0.187-0.038 0.018-0.006 0.033-0.015 0.050-0.023 0.019-0.010 0.039-0.015 0.058-0.027l3.213-2.133c0.012-0.008 0.018-0.021 0.029-0.029 0.013-0.010 0.029-0.014 0.041-0.026l1.271-1.191c0.662-0.62 0.753-1.635 0.212-2.362zM2.13 17.77c-0.173 0.093-0.37 0.111-0.558 0.052-0.187-0.058-0.338-0.186-0.427-0.358-0.161-0.314-0.068-0.695 0.214-0.902l1.314-0.632 0.449 1.313-0.992 0.527zM5.628 15.942l-1.548 0.8-0.439-1.283 2.027-1.001-0.040 1.484zM20.727 9.322c0 0.918-0.219 1.785-0.599 2.559l-4.181-1.899c-0.044-0.573-0.341-1.075-0.788-1.388l1.464-4.86c2.378 0.756 4.105 2.974 4.105 5.588zM8.938 9.322c0-3.235 2.644-5.867 5.894-5.867 0.253 0 0.5 0.021 0.745 0.052l-1.432 4.754c-0.019-0.001-0.037-0.006-0.057-0.006-1.033 0-1.873 0.837-1.873 1.867s0.84 1.867 1.873 1.867c0.694 0 1.294-0.383 1.618-0.945l3.862 1.755c-1.075 1.446-2.795 2.39-4.737 2.39-3.25 0-5.894-2.632-5.894-5.867zM14.894 10.122c0 0.441-0.362 0.8-0.806 0.8s-0.806-0.359-0.806-0.8c0-0.441 0.362-0.8 0.806-0.8s0.806 0.359 0.806 0.8zM2.465 25.146c-0.236 0.234-0.619 0.234-0.854 0.001-0.114-0.114-0.176-0.263-0.176-0.423s0.062-0.309 0.176-0.421l0.962-0.958 0.851 0.848-0.959 0.955zM5.679 28.88c-0.236 0.234-0.619 0.235-0.855 0.001-0.114-0.114-0.176-0.263-0.176-0.423s0.062-0.309 0.176-0.421l0.963-0.959 0.852 0.848-0.96 0.955zM9.16 25.411c-0.001 0-0.001 0-0.002 0.001l-1.765 1.76-0.852-0.848 1.763-1.755c0 0 0 0 0-0s0.001-0.001 0.002-0.001c0.040-0.040 0.065-0.088 0.090-0.135 0.007-0.014 0.020-0.026 0.026-0.040 0.017-0.041 0.019-0.085 0.026-0.129 0.003-0.025 0.014-0.047 0.014-0.073 0-0.036-0.013-0.070-0.020-0.106-0.006-0.032-0.006-0.065-0.019-0.095-0.020-0.050-0.055-0.094-0.091-0.138-0.010-0.012-0.014-0.027-0.025-0.038 0 0 0 0-0.001 0s-0.001-0.002-0.001-0.002l-1.607-1.6c-0.017-0.017-0.039-0.024-0.058-0.038-0.028-0.022-0.055-0.042-0.087-0.058-0.030-0.015-0.061-0.024-0.093-0.033-0.034-0.010-0.067-0.017-0.103-0.020-0.033-0.002-0.063 0.001-0.095 0.005-0.036 0.004-0.069 0.009-0.104 0.020-0.034 0.011-0.063 0.027-0.094 0.045-0.020 0.011-0.042 0.015-0.061 0.029l-1.773 1.324-0.901-0.897 2.399-2.386 4.361 4.289-0.928 0.919zM15.979 18.394c-0.015-0.002-0.030 0.004-0.045 0.003-0.039-0.002-0.076 0.001-0.115 0.007-0.030 0.005-0.059 0.011-0.088 0.021-0.034 0.012-0.065 0.028-0.097 0.047-0.030 0.018-0.057 0.037-0.083 0.061-0.013 0.011-0.028 0.017-0.040 0.029l-4.698 5.146-4.328-4.257 2.833-2.818c0.209-0.208 0.21-0.546 0.002-0.755-0.105-0.105-0.243-0.157-0.381-0.156v-0.001l-2.219 0.013 0.028-1.607 3.104 0.027c1.265 1.294 3.029 2.101 4.981 2.101 0.437 0 0.864-0.045 1.279-0.123 0.040 0.032 0.079 0.065 0.13 0.085l2.41 0.96 0.152 0.758 0.178 0.885-3.003-0.427zM20.020 18.572l-0.313-1.558 1.446-1.080 0.947 1.257-2.080 1.381zM23.774 15.741l-0.838 0.785-0.931-1.236 0.831-0.637c0.155-0.119 0.351-0.168 0.543-0.143 0.193 0.027 0.364 0.128 0.48 0.284 0.217 0.292 0.18 0.699-0.085 0.947z"></path>
<path d="M13.602 18.544l-2.143-2.133c-0.207-0.207-0.545-0.207-0.753 0l-2.142 2.133c-0.1 0.101-0.157 0.236-0.157 0.378s0.056 0.278 0.157 0.378l2.142 2.133c0.104 0.103 0.241 0.155 0.377 0.155s0.273-0.052 0.376-0.155l2.143-2.133c0.1-0.1 0.157-0.236 0.157-0.378s-0.057-0.278-0.157-0.378zM11.083 20.303l-1.387-1.381 1.387-1.381 1.387 1.381-1.387 1.381z"></path>
<path d="M17.164 5.071l-0.258 1.036c0.071 0.018 1.738 0.452 1.738 2.149h1.067c-0-2.017-1.666-2.965-2.547-3.185z"></path>
<path d="M19.711 9.322h-1.067v1.067h1.067v-1.067z"></path>
</symbol>
<symbol id="icon-insta-icn" viewBox="0 0 32 32">
<path d="M31.969 9.408c-0.075-1.7-0.35-2.869-0.744-3.882-0.406-1.075-1.031-2.038-1.85-2.838-0.8-0.813-1.769-1.444-2.832-1.844-1.019-0.394-2.182-0.669-3.882-0.744-1.713-0.081-2.257-0.1-6.601-0.1s-4.888 0.019-6.595 0.094c-1.7 0.075-2.869 0.35-3.882 0.744-1.075 0.406-2.038 1.031-2.838 1.85-0.813 0.8-1.444 1.769-1.844 2.832-0.394 1.019-0.669 2.182-0.744 3.882-0.081 1.713-0.1 2.257-0.1 6.601s0.019 4.888 0.094 6.595c0.075 1.7 0.35 2.869 0.744 3.882 0.406 1.075 1.038 2.038 1.85 2.838 0.8 0.813 1.769 1.444 2.832 1.844 1.019 0.394 2.182 0.669 3.882 0.744 1.706 0.075 2.25 0.094 6.595 0.094s4.888-0.018 6.595-0.094c1.7-0.075 2.869-0.35 3.882-0.744 2.151-0.831 3.851-2.532 4.682-4.682 0.394-1.019 0.669-2.182 0.744-3.882 0.075-1.707 0.094-2.251 0.094-6.595s-0.006-4.888-0.081-6.595zM29.087 22.473c-0.069 1.563-0.331 2.407-0.55 2.969-0.538 1.394-1.644 2.501-3.038 3.038-0.563 0.219-1.413 0.481-2.969 0.55-1.688 0.075-2.194 0.094-6.464 0.094s-4.782-0.018-6.464-0.094c-1.563-0.069-2.407-0.331-2.969-0.55-0.694-0.256-1.325-0.663-1.838-1.194-0.531-0.519-0.938-1.144-1.194-1.838-0.219-0.563-0.481-1.413-0.55-2.969-0.075-1.688-0.094-2.194-0.094-6.464s0.019-4.782 0.094-6.464c0.069-1.563 0.331-2.407 0.55-2.969 0.256-0.694 0.663-1.325 1.2-1.838 0.519-0.531 1.144-0.938 1.838-1.194 0.563-0.219 1.413-0.481 2.969-0.55 1.688-0.075 2.194-0.094 6.464-0.094 4.276 0 4.782 0.019 6.464 0.094 1.563 0.069 2.407 0.331 2.969 0.55 0.694 0.256 1.325 0.662 1.838 1.194 0.531 0.519 0.938 1.144 1.194 1.838 0.219 0.563 0.481 1.413 0.55 2.969 0.075 1.688 0.094 2.194 0.094 6.464s-0.019 4.77-0.094 6.457z"></path>
<path d="M16.059 7.782c-4.538 0-8.22 3.682-8.22 8.22s3.682 8.22 8.22 8.22c4.538 0 8.22-3.682 8.22-8.22s-3.682-8.22-8.22-8.22zM16.059 21.335c-2.944 0-5.332-2.388-5.332-5.332s2.388-5.332 5.332-5.332c2.944 0 5.332 2.388 5.332 5.332s-2.388 5.332-5.332 5.332z"></path>
<path d="M26.524 7.457c0 1.060-0.859 1.919-1.919 1.919s-1.919-0.859-1.919-1.919c0-1.060 0.859-1.919 1.919-1.919s1.919 0.859 1.919 1.919z"></path>
</symbol>
<symbol id="icon-linkedin-icn" viewBox="0 0 32 32">
<path d="M31.992 32v-0.001h0.008v-11.736c0-5.741-1.236-10.164-7.948-10.164-3.227 0-5.392 1.771-6.276 3.449h-0.093v-2.913h-6.364v21.364h6.627v-10.579c0-2.785 0.528-5.479 3.977-5.479 3.399 0 3.449 3.179 3.449 5.657v10.401h6.62z"></path>
<path d="M0.528 10.636h6.635v21.364h-6.635v-21.364z"></path>
<path d="M3.843-0c-2.121 0-3.843 1.721-3.843 3.843s1.721 3.879 3.843 3.879c2.121 0 3.843-1.757 3.843-3.879-0.001-2.121-1.723-3.843-3.843-3.843v0z"></path>
</symbol>
<symbol id="icon-logo1" viewBox="0 0 28 32">
<path d="M4.085 0l4.771 4.545-8.857-0.004v22.053h23.149v-8.432l4.766 4.541v-22.703h-23.83zM22.939 17.629l-13.528-12.889h13.528v12.889zM18.739 23.368h-15.076v-14.832h1.066v13.828h14.011v1.005zM6.67 30.681l-0.562-1.156h-0.464l0.814 1.529v0.891h0.42v-0.892l0.815-1.529h-0.462l-0.562 1.155zM8.741 29.525h0.099l0.914 2.42h-0.438l-0.196-0.566h-0.937l-0.195 0.566h-0.437l0.911-2.42h0.279zM8.297 31.048h0.709l-0.354-1.027-0.354 1.027zM11.222 30.646c-0.007-0.008-0.024-0.030-0.041-0.052l-0.011-0.015c-0.054-0.069-0.102-0.147-0.142-0.23l-0.003-0.008c-0.032-0.070-0.051-0.153-0.051-0.239 0-0 0-0 0-0.001v0c0-0.126 0.026-0.234 0.078-0.325s0.128-0.162 0.218-0.208l0.003-0.001c0.095-0.050 0.207-0.075 0.334-0.075 0.005-0 0.011-0 0.017-0 0.11 0 0.214 0.028 0.304 0.077l-0.003-0.002c0.168 0.089 0.281 0.263 0.281 0.463 0 0.075-0.016 0.146-0.044 0.21l0.001-0.003c-0.030 0.067-0.069 0.124-0.116 0.173l0-0c-0.051 0.054-0.106 0.103-0.165 0.146l-0.003 0.002-0.168 0.123 0.479 0.565c0.066-0.126 0.104-0.276 0.104-0.435 0-0.006-0-0.012-0-0.018v0.001h0.346c0 0.118-0.012 0.229-0.035 0.334-0.032 0.152-0.094 0.287-0.179 0.403l0.002-0.003 0.354 0.419h-0.463l-0.141-0.165c-0.071 0.055-0.154 0.101-0.242 0.134l-0.007 0.002c-0.109 0.040-0.235 0.063-0.367 0.063-0.003 0-0.006 0-0.009-0h0c-0.161 0-0.3-0.029-0.417-0.088-0.113-0.055-0.206-0.138-0.271-0.24l-0.002-0.003c-0.060-0.098-0.095-0.216-0.095-0.343 0-0.004 0-0.008 0-0.012v0.001c-0-0.004-0-0.008-0-0.012 0-0.090 0.023-0.175 0.063-0.249l-0.001 0.003c0.042-0.076 0.097-0.146 0.168-0.21 0.066-0.059 0.14-0.118 0.225-0.178zM11.421 30.89l-0.050 0.036c-0.051 0.039-0.094 0.085-0.13 0.136l-0.001 0.002c-0.043 0.063-0.068 0.14-0.068 0.224 0 0.067 0.017 0.131 0.046 0.187l-0.001-0.002c0.032 0.058 0.078 0.105 0.133 0.137l0.002 0.001c0.060 0.032 0.13 0.051 0.205 0.051 0.004 0 0.009-0 0.013-0h-0.001c0.097-0 0.189-0.023 0.271-0.063l-0.004 0.002c0.047-0.023 0.087-0.049 0.124-0.078l-0.002 0.001-0.538-0.633zM11.516 30.448l0.148-0.099c0.059-0.036 0.109-0.082 0.149-0.135l0.001-0.001c0.028-0.045 0.045-0.1 0.045-0.159 0-0.004-0-0.008-0-0.012l0 0.001c-0.004-0.13-0.111-0.233-0.241-0.233-0.005 0-0.010 0-0.014 0l0.001-0c-0.002-0-0.005-0-0.007-0-0.099 0-0.184 0.058-0.223 0.142l-0.001 0.002c-0.018 0.040-0.029 0.088-0.029 0.137 0 0.058 0.014 0.113 0.040 0.161l-0.001-0.002c0.025 0.052 0.060 0.107 0.105 0.165l0.027 0.035zM15.751 31.158h-0.416c-0.009 0.099-0.037 0.19-0.078 0.272l0.002-0.004c-0.038 0.072-0.096 0.128-0.166 0.164l-0.002 0.001c-0.077 0.036-0.167 0.057-0.262 0.057-0.009 0-0.018-0-0.027-0.001l0.001 0c-0.004 0-0.009 0-0.014 0-0.087 0-0.169-0.022-0.24-0.060l0.003 0.001c-0.071-0.040-0.13-0.096-0.172-0.163l-0.001-0.002c-0.045-0.073-0.079-0.158-0.098-0.249l-0.001-0.005c-0.020-0.096-0.032-0.207-0.032-0.32 0-0.004 0-0.009 0-0.013v0.001-0.204c0-0.129 0.012-0.243 0.035-0.343s0.060-0.185 0.108-0.254c0.045-0.066 0.105-0.119 0.176-0.155l0.003-0.001c0.069-0.034 0.15-0.053 0.236-0.053 0.005 0 0.009 0 0.014 0h-0.001c0.116 0 0.21 0.020 0.283 0.060s0.126 0.095 0.163 0.17c0.037 0.074 0.062 0.163 0.073 0.267h0.415c-0.015-0.16-0.063-0.307-0.139-0.435l0.003 0.005c-0.074-0.125-0.179-0.226-0.305-0.292l-0.004-0.002c-0.133-0.068-0.291-0.107-0.457-0.107-0.011 0-0.022 0-0.033 0l0.002-0c-0.152 0-0.289 0.027-0.411 0.080s-0.225 0.129-0.311 0.232c-0.087 0.101-0.155 0.221-0.197 0.353l-0.002 0.007c-0.046 0.14-0.068 0.298-0.068 0.472v0.202c0 0.174 0.022 0.331 0.067 0.472s0.111 0.261 0.196 0.361c0.085 0.099 0.188 0.175 0.307 0.229 0.12 0.053 0.255 0.080 0.404 0.080 0.195 0 0.361-0.035 0.497-0.106s0.242-0.168 0.317-0.291c0.075-0.124 0.12-0.266 0.133-0.424zM18.059 30.802v-0.133c0-0.182-0.024-0.347-0.073-0.49-0.045-0.143-0.115-0.267-0.206-0.373l0.001 0.001c-0.086-0.1-0.192-0.179-0.312-0.232l-0.006-0.002c-0.123-0.054-0.259-0.082-0.409-0.082-0.148 0-0.285 0.027-0.407 0.082-0.123 0.053-0.228 0.131-0.318 0.234-0.088 0.102-0.157 0.226-0.206 0.371-0.047 0.14-0.074 0.301-0.074 0.468 0 0.008 0 0.015 0 0.023v-0.001 0.133c0 0.183 0.024 0.347 0.074 0.492 0.048 0.143 0.119 0.266 0.21 0.372l-0.001-0.001c0.090 0.102 0.196 0.18 0.317 0.235 0.123 0.053 0.259 0.080 0.408 0.080s0.286-0.027 0.409-0.080c0.123-0.054 0.229-0.133 0.316-0.235 0.088-0.102 0.157-0.225 0.204-0.37 0.045-0.14 0.072-0.302 0.072-0.469 0-0.008-0-0.016-0-0.024v0.001zM17.642 30.666v0.136c0 0.136-0.014 0.255-0.040 0.36-0.023 0.1-0.062 0.189-0.115 0.267l0.002-0.003c-0.047 0.068-0.108 0.122-0.18 0.16l-0.003 0.001c-0.069 0.034-0.151 0.053-0.237 0.053-0.004 0-0.008-0-0.012-0h0.001c-0.003 0-0.007 0-0.011 0-0.086 0-0.167-0.020-0.239-0.055l0.003 0.001c-0.075-0.040-0.137-0.094-0.185-0.16l-0.001-0.002c-0.052-0.076-0.092-0.164-0.115-0.259l-0.001-0.005c-0.026-0.102-0.040-0.22-0.040-0.341 0-0.007 0-0.013 0-0.020v0.001-0.136c0-0.135 0.014-0.254 0.040-0.357s0.065-0.191 0.115-0.261c0.047-0.067 0.109-0.121 0.181-0.158l0.003-0.001c0.069-0.035 0.151-0.055 0.237-0.055 0.003 0 0.007 0 0.010 0h-0c0.092 0 0.174 0.018 0.248 0.054s0.134 0.088 0.184 0.16c0.051 0.069 0.090 0.157 0.115 0.261 0.027 0.104 0.040 0.223 0.040 0.357z"></path>
</symbol>
<symbol id="icon-logo2" viewBox="0 0 25 32">
<path d="M10.531 1.806h-0.084c-0.129-0.008-0.258-0.011-0.388-0.014v0h-0.28c-0.244 0-0.494 0.006-0.741 0.019-0.019-0.001-0.037-0.001-0.056 0-2.243 0.127-4.44 0.688-6.471 1.651l-0.266 0.128v13.625l0.623-0.211c0.546-0.188 1.129-0.357 1.731-0.513 1.629-0.418 3.301-0.64 4.982-0.662v1.79c-0.223 0.002-0.439 0.008-0.655 0.019h-0.051c-1.294 0.071-2.577 0.268-3.833 0.588-1.59 0.398-3.124 0.996-4.566 1.779v-17.475c1.497-0.873 3.11-1.529 4.79-1.948 1.475-0.381 2.992-0.576 4.515-0.582h0.263c0.314 0.008 0.621 0.022 0.909 0.044 0.759 0.053 1.511 0.173 2.249 0.358v1.762c-0.717-0.167-1.445-0.277-2.179-0.329-0.015-0.001-0.030-0.003-0.045-0.004-0.152-0.013-0.304-0.026-0.446-0.026zM13.633 3.607c0.391 0.030 0.796 0.044 1.205 0.044 1.601-0.006 3.195-0.21 4.747-0.609 1.589-0.4 3.123-0.998 4.564-1.781v17.163c-1.498 0.873-3.111 1.529-4.792 1.948-1.475 0.379-2.992 0.574-4.515 0.581-1.154 0.009-2.304-0.126-3.425-0.404v-17.275c0.265 0.061 0.537 0.117 0.814 0.164 0.455 0.077 0.934 0.133 1.401 0.167zM22.367 3.74l-0.623 0.21c-0.573 0.192-1.15 0.365-1.731 0.518-1.691 0.434-3.428 0.657-5.173 0.663-0.406 0-0.78-0.011-1.141-0.034l-0.497-0.033v14.017l0.427 0.038c0.395 0.034 0.803 0.052 1.214 0.052 1.374-0.006 2.743-0.183 4.074-0.527 1.096-0.275 2.162-0.658 3.184-1.144l0.266-0.128v-13.63z"></path>
<path d="M1.684 25.977c-0.090-0.093-0.197-0.166-0.317-0.214s-0.247-0.071-0.376-0.066c-0.137-0.002-0.273 0.024-0.4 0.075-0.117 0.046-0.222 0.116-0.311 0.205s-0.156 0.196-0.201 0.313c-0.049 0.123-0.073 0.254-0.072 0.387v2.335c-0.006 0.165 0.026 0.328 0.092 0.479 0.055 0.12 0.135 0.226 0.233 0.313 0.093 0.079 0.203 0.135 0.321 0.166 0.114 0.032 0.231 0.048 0.349 0.049 0.13 0.001 0.259-0.027 0.377-0.081 0.117-0.051 0.222-0.124 0.311-0.216 0.087-0.091 0.156-0.197 0.204-0.313 0.050-0.118 0.075-0.244 0.075-0.372v-0.261h-0.61v0.208c0.002 0.071-0.010 0.142-0.036 0.208-0.020 0.050-0.050 0.095-0.089 0.131-0.038 0.031-0.081 0.053-0.128 0.067-0.041 0.014-0.084 0.021-0.128 0.022-0.054 0.006-0.11-0.002-0.16-0.024s-0.094-0.057-0.126-0.101c-0.058-0.094-0.086-0.203-0.081-0.313v-2.177c-0.004-0.121 0.022-0.241 0.075-0.349 0.032-0.049 0.077-0.089 0.129-0.114s0.112-0.034 0.17-0.027c0.053-0.002 0.105 0.009 0.152 0.032s0.089 0.057 0.12 0.099c0.068 0.090 0.104 0.2 0.101 0.313v0.202h0.604v-0.238c0.001-0.14-0.024-0.278-0.075-0.408-0.045-0.122-0.114-0.234-0.204-0.329z"></path>
<path d="M5.31 25.95c-0.195-0.164-0.44-0.255-0.694-0.257-0.124 0-0.248 0.023-0.364 0.066-0.119 0.042-0.228 0.107-0.322 0.191-0.101 0.091-0.182 0.202-0.237 0.327-0.061 0.143-0.092 0.297-0.089 0.452v2.239c-0.004 0.158 0.026 0.314 0.089 0.459 0.055 0.12 0.136 0.227 0.237 0.313 0.093 0.087 0.203 0.154 0.322 0.197 0.117 0.043 0.24 0.065 0.364 0.066s0.248-0.023 0.364-0.066c0.121-0.044 0.233-0.111 0.33-0.197 0.097-0.087 0.176-0.194 0.23-0.313 0.063-0.145 0.093-0.301 0.089-0.459v-2.239c0.003-0.155-0.027-0.31-0.089-0.452-0.054-0.123-0.133-0.235-0.23-0.327zM5.025 28.969c0.005 0.060-0.003 0.12-0.024 0.176s-0.054 0.107-0.097 0.148c-0.081 0.068-0.182 0.105-0.287 0.105s-0.207-0.037-0.287-0.105c-0.043-0.041-0.076-0.092-0.097-0.148s-0.029-0.116-0.024-0.176v-2.239c-0.005-0.060 0.003-0.12 0.024-0.176s0.054-0.107 0.097-0.148c0.081-0.068 0.182-0.105 0.287-0.105s0.207 0.037 0.287 0.105c0.043 0.041 0.076 0.092 0.097 0.148s0.029 0.116 0.024 0.176v2.239z"></path>
<path d="M10.072 29.969v-4.239h-0.587l-0.771 2.244h-0.011l-0.777-2.244h-0.581v4.239h0.606v-2.579h0.011l0.593 1.823h0.302l0.598-1.823h0.011v2.579h0.606z"></path>
<path d="M13.513 26.027c-0.093-0.105-0.211-0.184-0.343-0.232-0.142-0.046-0.29-0.068-0.439-0.066h-0.9v4.239h0.604v-1.656h0.311c0.188 0.009 0.376-0.031 0.545-0.116 0.137-0.076 0.252-0.188 0.332-0.324 0.070-0.113 0.117-0.238 0.139-0.369 0.024-0.16 0.035-0.321 0.033-0.482 0.006-0.204-0.014-0.407-0.059-0.606-0.040-0.147-0.117-0.281-0.223-0.39zM13.201 27.319c-0.003 0.077-0.022 0.152-0.056 0.221-0.035 0.065-0.089 0.117-0.156 0.149-0.089 0.040-0.187 0.058-0.285 0.053h-0.275v-1.441h0.311c0.094-0.005 0.187 0.014 0.272 0.053 0.062 0.036 0.112 0.091 0.142 0.157 0.033 0.074 0.051 0.155 0.053 0.236 0 0.089 0 0.183 0 0.282s0.006 0.2 0 0.291h-0.006z"></path>
<path d="M16.374 25.73h-0.495l-0.934 4.239h0.604l0.177-0.911h0.823l0.177 0.911h0.604l-0.957-4.239zM15.817 28.481l0.297-1.537h0.011l0.296 1.537h-0.604z"></path>
<path d="M20.277 28.284h-0.011l-0.912-2.554h-0.581v4.239h0.604v-2.549h0.012l0.923 2.549h0.568v-4.239h-0.604v2.554z"></path>
<path d="M23.968 25.73l-0.486 1.685h-0.012l-0.486-1.685h-0.64l0.83 2.447v1.792h0.604v-1.792l0.83-2.447h-0.64z"></path>
<path d="M0 31.166h0.291v0.817h0.198v-0.817h0.29v-0.167h-0.778v0.167z"></path>
<path d="M2.447 30.998l-0.381 0.984h0.21l0.081-0.224h0.392l0.084 0.224h0.215l-0.391-0.984h-0.21zM2.416 31.593l0.134-0.365 0.134 0.365h-0.268z"></path>
<path d="M4.866 31.62h0.227v0.127c-0.066 0.053-0.149 0.082-0.234 0.083-0.040 0.002-0.079-0.005-0.116-0.021s-0.068-0.041-0.093-0.072c-0.052-0.075-0.078-0.165-0.073-0.257 0-0.219 0.095-0.329 0.283-0.329 0.050-0.005 0.099 0.008 0.14 0.037s0.070 0.071 0.082 0.12l0.195-0.038c-0.042-0.192-0.181-0.289-0.417-0.289-0.127-0.003-0.25 0.042-0.344 0.127-0.050 0.049-0.088 0.108-0.112 0.174s-0.034 0.135-0.029 0.205c-0.006 0.135 0.039 0.267 0.126 0.369 0.048 0.050 0.107 0.088 0.171 0.113s0.134 0.035 0.203 0.031c0.154 0.004 0.304-0.052 0.417-0.157v-0.388h-0.427v0.166z"></path>
<path d="M7.337 30.998h-0.199v0.984h0.69v-0.167h-0.49v-0.817z"></path>
<path d="M9.426 30.998h-0.199v0.984h0.199v-0.984z"></path>
<path d="M11.469 31.656l-0.403-0.657h-0.193v0.984h0.185v-0.643l0.395 0.643h0.198v-0.984h-0.182v0.657z"></path>
<path d="M13.315 31.549h0.49v-0.167h-0.49v-0.216h0.528v-0.167h-0.727v0.984h0.747v-0.167h-0.548v-0.266z"></path>
<path d="M17.792 31.387h-0.388v-0.388h-0.198v0.984h0.198v-0.43h0.388v0.43h0.198v-0.984h-0.198v0.388z"></path>
<path d="M19.649 31.549h0.492v-0.167h-0.492v-0.216h0.529v-0.167h-0.727v0.984h0.746v-0.167h-0.548v-0.266z"></path>
<path d="M22.168 31.549c0.171-0.027 0.258-0.117 0.258-0.274 0.005-0.042-0.001-0.084-0.018-0.123s-0.044-0.072-0.078-0.096c-0.089-0.045-0.189-0.065-0.288-0.058h-0.417v0.984h0.198v-0.412h0.039c0.042-0.003 0.084 0.005 0.123 0.022 0.029 0.018 0.053 0.043 0.070 0.072l0.215 0.313h0.237l-0.12-0.192c-0.053-0.095-0.128-0.176-0.218-0.236zM21.969 31.413h-0.146v-0.247h0.156c0.068-0.005 0.136 0.002 0.201 0.023 0.014 0.013 0.026 0.029 0.033 0.046s0.011 0.037 0.010 0.056c-0.001 0.019-0.006 0.038-0.015 0.055s-0.022 0.032-0.037 0.043c-0.065 0.020-0.133 0.028-0.201 0.023z"></path>
<path d="M24.067 31.549h0.49v-0.167h-0.49v-0.216h0.529v-0.167h-0.729v0.984h0.747v-0.167h-0.548v-0.266z"></path>
</symbol>
<symbol id="icon-logo3" viewBox="0 0 59 32">
<path d="M21.034 28.127c0.009 0 0.018 0.002 0.026 0.006s0.016 0.008 0.023 0.013l-0-0 0.126 0.119c-0.099 0.096-0.216 0.172-0.347 0.223l-0.007 0.002c-0.16 0.057-0.331 0.085-0.503 0.081-0.008 0-0.017 0-0.026 0-0.16 0-0.314-0.028-0.457-0.079l0.009 0.003c-0.138-0.049-0.256-0.122-0.357-0.213l0.001 0.001c-0.097-0.090-0.175-0.2-0.228-0.323l-0.002-0.006c-0.051-0.121-0.081-0.262-0.081-0.41 0-0.004 0-0.009 0-0.013v0.001c-0-0.004-0-0.009-0-0.014 0-0.148 0.032-0.289 0.090-0.416l-0.003 0.006c0.055-0.122 0.138-0.234 0.245-0.329 0.107-0.092 0.233-0.165 0.37-0.212l0.008-0.002c0.141-0.048 0.303-0.076 0.471-0.076 0.006 0 0.011 0 0.017 0h-0.001c0.154-0.003 0.309 0.021 0.453 0.069 0.125 0.047 0.24 0.111 0.339 0.19l-0.106 0.127c-0.008 0.009-0.016 0.017-0.026 0.023l-0 0c-0.011 0.006-0.023 0.010-0.037 0.010-0.002 0-0.004-0-0.006-0l0 0c-0.017-0.001-0.033-0.006-0.046-0.014l0 0-0.057-0.034-0.078-0.043c-0.072-0.035-0.156-0.061-0.244-0.075l-0.005-0.001c-0.052-0.008-0.111-0.013-0.172-0.013-0.006 0-0.011 0-0.017 0h0.001c-0.004-0-0.008-0-0.012-0-0.121 0-0.237 0.021-0.345 0.059l0.007-0.002c-0.106 0.037-0.197 0.091-0.275 0.16l0.001-0.001c-0.079 0.074-0.139 0.16-0.178 0.254-0.041 0.095-0.065 0.207-0.065 0.323 0 0.004 0 0.008 0 0.012v-0.001c-0 0.004-0 0.008-0 0.013 0 0.118 0.024 0.23 0.067 0.332l-0.002-0.006c0.081 0.193 0.238 0.34 0.432 0.407l0.005 0.002c0.103 0.037 0.213 0.055 0.325 0.054 0.065 0.001 0.129-0.003 0.193-0.011 0.16-0.016 0.303-0.079 0.418-0.175l-0.001 0.001c0.016-0.013 0.037-0.021 0.060-0.022h0zM24.678 27.531c0.002 0.143-0.027 0.286-0.085 0.419-0.056 0.129-0.137 0.238-0.237 0.325l-0.001 0.001c-0.105 0.093-0.232 0.166-0.373 0.213-0.143 0.048-0.308 0.075-0.479 0.075s-0.336-0.028-0.49-0.079l0.011 0.003c-0.143-0.050-0.267-0.123-0.373-0.215l0.001 0.001c-0.101-0.090-0.182-0.199-0.237-0.323l-0.002-0.006c-0.054-0.124-0.085-0.268-0.085-0.42s0.031-0.296 0.088-0.427l-0.003 0.007c0.054-0.122 0.135-0.234 0.24-0.33 0.106-0.090 0.232-0.16 0.371-0.206 0.309-0.103 0.65-0.103 0.959 0 0.14 0.049 0.267 0.121 0.372 0.214 0.199 0.178 0.324 0.435 0.324 0.721 0 0.009-0 0.018-0 0.026l0-0.001zM24.346 27.531c0.003-0.114-0.017-0.229-0.059-0.337-0.077-0.196-0.234-0.345-0.431-0.409l-0.005-0.001c-0.104-0.035-0.224-0.055-0.349-0.055s-0.244 0.020-0.357 0.058l0.008-0.002c-0.104 0.036-0.193 0.090-0.267 0.16l0-0c-0.073 0.068-0.131 0.152-0.169 0.247l-0.002 0.005c-0.080 0.22-0.080 0.455 0 0.674 0.035 0.093 0.094 0.179 0.17 0.252 0.074 0.069 0.166 0.123 0.267 0.158 0.225 0.072 0.472 0.072 0.697 0 0.101-0.035 0.193-0.089 0.266-0.158 0.076-0.073 0.133-0.159 0.169-0.252 0.042-0.109 0.063-0.223 0.059-0.337zM27.163 27.885l0.033 0.075c0.013-0.027 0.024-0.051 0.037-0.075 0.012-0.026 0.026-0.050 0.041-0.074l0.806-1.251c0.016-0.022 0.030-0.035 0.046-0.040s0.035-0.007 0.054-0.007c0.004 0 0.009 0 0.013 0l-0.001-0h0.238v2.036h-0.282v-1.56c-0.001-0.011-0.001-0.023-0.001-0.035s0-0.025 0.001-0.037l-0 0.002-0.811 1.269c-0.011 0.020-0.027 0.036-0.047 0.046l-0.001 0c-0.020 0.011-0.043 0.017-0.068 0.017-0 0-0.001 0-0.001 0h-0.046c-0.001 0-0.001 0-0.002 0-0.025 0-0.048-0.006-0.069-0.018l0.001 0c-0.020-0.011-0.036-0.026-0.047-0.045l-0-0.001-0.834-1.278v1.634h-0.273v-2.032h0.238c0.003-0 0.006-0 0.010-0 0.020 0 0.039 0.003 0.057 0.007l-0.002-0c0.019 0.008 0.035 0.021 0.044 0.038l0 0 0.823 1.253c0.017 0.023 0.030 0.048 0.041 0.073zM30.197 27.784v0.762h-0.315v-2.033h0.703c0.133-0.002 0.266 0.013 0.393 0.045 0.102 0.025 0.197 0.067 0.278 0.126 0.067 0.052 0.121 0.12 0.156 0.197l0.001 0.003c0.037 0.083 0.055 0.171 0.054 0.26 0 0.003 0 0.006 0 0.009 0 0.185-0.089 0.35-0.227 0.453l-0.001 0.001c-0.079 0.060-0.173 0.106-0.274 0.134l-0.006 0.001c-0.122 0.033-0.251 0.049-0.379 0.047l-0.382-0.006zM30.197 27.566h0.382c0.083 0.001 0.166-0.010 0.245-0.031 0.067-0.019 0.126-0.049 0.178-0.088l-0.001 0.001c0.089-0.071 0.145-0.179 0.145-0.301 0-0.002 0-0.003-0-0.005v0c0-0.006 0.001-0.013 0.001-0.021 0-0.053-0.012-0.103-0.034-0.147l0.001 0.002c-0.027-0.055-0.064-0.102-0.11-0.138l-0.001-0.001c-0.106-0.070-0.235-0.111-0.374-0.111-0.017 0-0.035 0.001-0.052 0.002l0.002-0h-0.382v0.838zM34.437 28.549h-0.249c-0.001 0-0.003 0-0.004 0-0.024 0-0.046-0.007-0.065-0.019l0 0c-0.017-0.012-0.031-0.028-0.041-0.046l-0-0.001-0.214-0.492h-1.078l-0.222 0.491c-0.009 0.019-0.022 0.034-0.039 0.045l-0 0c-0.019 0.013-0.042 0.021-0.067 0.021-0.001 0-0.003-0-0.004-0h-0.249l0.946-2.036h0.328l0.959 2.036zM32.875 27.793h0.89l-0.375-0.829c-0.025-0.053-0.050-0.116-0.069-0.182l-0.002-0.009-0.036 0.106c-0.011 0.033-0.023 0.062-0.034 0.086l-0.373 0.829zM35.8 26.522c0.019 0.009 0.034 0.021 0.047 0.036l0 0 1.381 1.535v-1.581h0.282v2.036h-0.158c-0.002 0-0.004 0-0.006 0-0.021 0-0.041-0.004-0.060-0.012l0.001 0c-0.020-0.010-0.036-0.023-0.050-0.038l-0-0-1.378-1.534c0.001 0.011 0.001 0.023 0.001 0.035s-0 0.025-0.001 0.037l0-0.002v1.513h-0.282v-2.036h0.167c0.019-0.001 0.039 0.002 0.057 0.009zM39.834 27.739v0.809h-0.315v-0.809l-0.872-1.226h0.282c0.002-0 0.005-0 0.007-0 0.023 0 0.044 0.006 0.061 0.018l-0-0c0.017 0.013 0.031 0.029 0.042 0.046l0.546 0.791c0.037 0.052 0.070 0.112 0.094 0.175l0.002 0.005 0.041-0.087c0.015-0.032 0.034-0.063 0.054-0.093l0.538-0.797c0.012-0.017 0.025-0.031 0.041-0.043l0-0c0.017-0.013 0.039-0.020 0.062-0.020 0.002 0 0.004 0 0.006 0h0.285l-0.874 1.232zM27.007 23.095c0.137 0.015 0.276 0.027 0.417 0.038 2.129-0.813 3.929-2.145 5.177-3.828s1.887-3.642 1.838-5.634l-2.345-2.004c0.477 2.121 0.254 4.313-0.645 6.331-0.898 2.018-2.436 3.783-4.441 5.097z"></path>
<path d="M26.17 23.002l0.063 0.011c2.143-1.31 3.777-3.138 4.69-5.25s1.065-4.408 0.433-6.594l-3.341-2.854c1.351 2.346 1.895 4.972 1.569 7.571s-1.511 5.067-3.414 7.115zM37.5 16.024c-0.567 2.189-1.946 4.162-3.931 5.629-0.541 0.405-1.152 0.786-1.796 1.112l-0.071 0.033c1.616-0.406 3.102-1.123 4.342-2.097s2.202-2.178 2.811-3.52l-1.354-1.157z"></path>
<path d="M36.969 15.702l-1.929-1.648c-0.037 1.879-0.662 3.715-1.811 5.318s-2.779 2.914-4.721 3.796h0.010c0.433 0 0.865-0.022 1.295-0.066 1.815-0.633 3.419-1.64 4.667-2.931s2.104-2.827 2.489-4.469zM26.449 7.112l-2.301-1.969c-2.057 0.679-3.827 1.873-5.077 3.426s-1.922 3.392-1.929 5.277c0.008 2.082 0.828 4.103 2.331 5.742s3.603 2.803 5.967 3.308c2.111-2.198 3.347-4.913 3.528-7.751s-0.702-5.651-2.52-8.032zM42.286 15.399c-0.009-2.47-1.161-4.838-3.206-6.585-2.044-1.747-4.815-2.731-7.706-2.739-0.007-0-0.016-0-0.025-0-1.388 0-2.723 0.227-3.97 0.647l0.088-0.026 14.091 12.039c0.459-0.98 0.727-2.127 0.729-3.337v-0.001z"></path>
</symbol>
<symbol id="icon-logo4" viewBox="0 0 59 32">
<path d="M13.759 12.296h-0.002c-1.363 0-2.469 0.997-2.469 2.225v0.002c0 1.229 1.106 2.225 2.469 2.225h0.002c1.363 0 2.469-0.996 2.469-2.225v-0.002c0-1.229-1.105-2.225-2.469-2.225zM31.978 11.585c-0.003-1.707-0.757-3.343-2.096-4.551-1.339-1.207-3.153-1.887-5.047-1.891-1.894 0.003-3.709 0.683-5.049 1.89s-2.094 2.844-2.097 4.551v9.414s14.287-1.434 14.289-9.412v-0.002zM6.286 24.088c0.003 1.188 0.528 2.326 1.459 3.166s2.194 1.314 3.511 1.317c1.317-0.003 2.579-0.477 3.511-1.317s1.456-1.977 1.46-3.166v-6.549s-9.942 0.998-9.942 6.548zM11.257 25.262c-0.257 0-0.509-0.069-0.723-0.198-0.209-0.125-0.373-0.305-0.476-0.52l-0.003-0.007c-0.063-0.132-0.099-0.286-0.099-0.449 0-0.081 0.009-0.16 0.026-0.236l-0.001 0.007c0.056-0.241 0.182-0.446 0.355-0.6l0.001-0.001c0.181-0.161 0.408-0.275 0.659-0.32l0.008-0.001c0.253-0.046 0.514-0.022 0.752 0.067s0.441 0.239 0.584 0.432c0.143 0.193 0.219 0.42 0.219 0.652 0.001 0.154-0.033 0.308-0.098 0.451s-0.161 0.273-0.282 0.382c-0.119 0.107-0.26 0.194-0.414 0.252l-0.009 0.003c-0.148 0.057-0.319 0.090-0.498 0.090-0.001 0-0.001 0-0.002 0h0v-0.005zM20.348 23.151v2.438h-0.502v-2.438h0.502zM21.319 24.193v0.392h-1.109v-0.392h1.109zM21.436 23.151v0.393h-1.225v-0.393h1.225zM23.73 24.313v0.115c0 0.186-0.025 0.352-0.075 0.499-0.048 0.146-0.121 0.271-0.214 0.379l0.001-0.001c-0.091 0.103-0.201 0.181-0.328 0.236-0.12 0.052-0.259 0.082-0.405 0.082-0.005 0-0.011-0-0.016-0h0.001c-0.153 0-0.293-0.027-0.42-0.082-0.129-0.057-0.238-0.136-0.327-0.235l-0.001-0.001c-0.093-0.106-0.167-0.232-0.214-0.369l-0.002-0.008c-0.048-0.142-0.076-0.306-0.076-0.477 0-0.008 0-0.016 0-0.023v0.001-0.115c0-0.186 0.025-0.353 0.075-0.499 0.048-0.145 0.121-0.271 0.214-0.378l-0.001 0.001c0.093-0.104 0.202-0.183 0.328-0.238 0.127-0.055 0.267-0.082 0.421-0.082 0.154 0 0.294 0.027 0.42 0.082 0.127 0.055 0.237 0.134 0.328 0.238 0.093 0.104 0.164 0.229 0.214 0.377 0.051 0.146 0.077 0.312 0.077 0.498zM23.222 24.429v-0.119c0-0.129-0.011-0.243-0.035-0.341-0.021-0.094-0.057-0.177-0.106-0.251l0.002 0.003c-0.042-0.064-0.099-0.115-0.165-0.15l-0.002-0.001c-0.063-0.032-0.137-0.052-0.216-0.052-0.003 0-0.007 0-0.010 0h0c-0.085 0-0.16 0.017-0.226 0.051-0.068 0.037-0.124 0.088-0.165 0.149l-0.001 0.002c-0.046 0.071-0.081 0.154-0.101 0.243l-0.001 0.005c-0.022 0.096-0.035 0.206-0.035 0.32 0 0.008 0 0.015 0 0.022v-0.001 0.119c0 0.129 0.011 0.242 0.035 0.342 0.023 0.098 0.058 0.181 0.104 0.25 0.046 0.067 0.102 0.118 0.167 0.152s0.141 0.052 0.226 0.052c0.085 0 0.16-0.017 0.226-0.051 0.068-0.037 0.124-0.088 0.165-0.151l0.001-0.002c0.045-0.069 0.079-0.151 0.102-0.25 0.022-0.097 0.035-0.207 0.035-0.321 0-0.007-0-0.014-0-0.022v0.001zM25.36 24.951c0-0.002 0-0.003 0-0.005 0-0.040-0.007-0.079-0.021-0.114l0.001 0.002c-0.015-0.039-0.039-0.072-0.070-0.097l-0-0c-0.042-0.034-0.090-0.064-0.142-0.087l-0.004-0.002c-0.065-0.030-0.146-0.061-0.228-0.086l-0.015-0.004c-0.128-0.041-0.232-0.082-0.334-0.128l0.019 0.008c-0.1-0.045-0.186-0.097-0.264-0.158l0.003 0.002c-0.072-0.057-0.131-0.127-0.175-0.206l-0.002-0.004c-0.040-0.077-0.064-0.168-0.064-0.264 0-0.004 0-0.008 0-0.012v0.001c-0-0.002-0-0.005-0-0.008 0-0.098 0.025-0.191 0.068-0.271l-0.002 0.003c0.045-0.084 0.107-0.155 0.187-0.214 0.080-0.061 0.175-0.107 0.285-0.139 0.111-0.032 0.231-0.049 0.363-0.049 0.179 0 0.337 0.033 0.47 0.097s0.238 0.154 0.311 0.266c0.074 0.113 0.112 0.242 0.112 0.387h-0.499c0-0.003 0-0.006 0-0.009 0-0.066-0.017-0.127-0.046-0.181l0.001 0.002c-0.031-0.056-0.076-0.1-0.132-0.128l-0.002-0.001c-0.060-0.030-0.132-0.047-0.207-0.047-0.006 0-0.012 0-0.019 0l0.001-0c-0.005-0-0.011-0-0.017-0-0.072 0-0.141 0.015-0.204 0.042l0.003-0.001c-0.054 0.022-0.099 0.059-0.131 0.105l-0.001 0.001c-0.027 0.040-0.043 0.090-0.043 0.143 0 0.002 0 0.003 0 0.005v-0c0 0.041 0.010 0.079 0.030 0.112 0.025 0.037 0.057 0.069 0.093 0.093l0.001 0.001c0.041 0.029 0.091 0.057 0.152 0.082s0.13 0.051 0.209 0.075c0.133 0.040 0.25 0.085 0.35 0.135s0.186 0.106 0.254 0.169c0.069 0.063 0.119 0.133 0.154 0.213s0.051 0.169 0.051 0.27c0 0.007 0 0.015 0 0.023 0 0.194-0.095 0.366-0.24 0.473l-0.002 0.001c-0.078 0.058-0.171 0.102-0.279 0.132s-0.229 0.046-0.363 0.046c-0.12 0-0.239-0.016-0.357-0.047-0.122-0.033-0.228-0.083-0.324-0.148l0.004 0.002c-0.094-0.064-0.17-0.147-0.226-0.244l-0.002-0.004c-0.057-0.101-0.085-0.219-0.085-0.357h0.504c0 0.076 0.011 0.14 0.035 0.193 0.023 0.051 0.056 0.094 0.098 0.126l0.001 0.001c0.044 0.032 0.095 0.056 0.151 0.070l0.003 0.001c0.060 0.015 0.126 0.022 0.197 0.022 0.006 0 0.012 0 0.019 0 0.070 0 0.138-0.014 0.199-0.038l-0.004 0.001c0.099-0.040 0.167-0.135 0.167-0.246 0-0.001 0-0.003-0-0.004v0zM27.294 23.151v2.438h-0.501v-2.438h0.501zM28.044 23.151v0.393h-1.989v-0.393h1.989zM29.966 25.197v0.392h-1.297v-0.392h1.297zM28.833 23.151v2.438h-0.503v-2.438h0.503zM29.797 24.144v0.382h-1.129v-0.382h1.129zM29.964 23.151v0.393h-1.296v-0.393h1.296zM30.259 23.151h0.909c0.187 0 0.347 0.028 0.481 0.083 0.135 0.056 0.239 0.139 0.311 0.248s0.109 0.244 0.109 0.403c0 0.131-0.022 0.243-0.067 0.337-0.044 0.093-0.107 0.171-0.184 0.232l-0.001 0.001c-0.080 0.061-0.173 0.111-0.273 0.145l-0.007 0.002-0.159 0.084h-0.79l-0.003-0.392h0.587c0.005 0 0.011 0 0.017 0 0.074 0 0.144-0.017 0.206-0.048l-0.003 0.001c0.056-0.030 0.101-0.075 0.13-0.129l0.001-0.002c0.029-0.054 0.045-0.118 0.045-0.185 0-0.003-0-0.006-0-0.010v0c0-0.003 0-0.007 0-0.011 0-0.070-0.016-0.135-0.045-0.194l0.001 0.003c-0.029-0.057-0.075-0.102-0.131-0.13l-0.002-0.001c-0.061-0.029-0.132-0.046-0.207-0.046-0.006 0-0.011 0-0.017 0l0.001-0h-0.407v2.045h-0.502v-2.438zM31.621 25.589l-0.555-1.087 0.53-0.003 0.563 1.067v0.023h-0.537zM34.258 24.721h-0.621v-0.392h0.621c0.006 0 0.013 0 0.020 0 0.078 0 0.151-0.017 0.217-0.049l-0.003 0.001c0.057-0.030 0.103-0.076 0.131-0.133l0.001-0.002c0.026-0.058 0.041-0.126 0.041-0.197s-0.015-0.139-0.043-0.201l0.001 0.003c-0.029-0.063-0.074-0.115-0.131-0.15l-0.001-0.001c-0.062-0.036-0.137-0.058-0.216-0.058-0.006 0-0.013 0-0.019 0l0.001-0h-0.447v2.045h-0.502v-2.438h0.949c0.191 0 0.354 0.034 0.491 0.104 0.137 0.068 0.242 0.162 0.314 0.283s0.109 0.258 0.109 0.413c0 0.158-0.036 0.294-0.109 0.409s-0.177 0.204-0.314 0.266c-0.137 0.063-0.3 0.094-0.491 0.094zM37.154 25.197v0.392h-1.297v-0.392h1.297zM36.021 23.151v2.438h-0.503v-2.438h0.503zM36.985 24.144v0.382h-1.128v-0.382h1.129zM37.153 23.151v0.393h-1.295v-0.393h1.295zM38.571 23.151v2.438h-0.501v-2.438h0.501zM39.321 23.151v0.393h-1.989v-0.393h1.989zM41.242 25.197v0.392h-1.297v-0.392h1.297zM40.109 23.151v2.438h-0.502v-2.438h0.502zM41.073 24.144v0.382h-1.128v-0.382h1.128zM41.241 23.151v0.393h-1.295v-0.393h1.295zM41.535 23.151h0.909c0.187 0 0.347 0.028 0.481 0.083s0.239 0.139 0.311 0.248c0.072 0.109 0.109 0.244 0.109 0.403 0 0.131-0.023 0.243-0.067 0.337s-0.107 0.171-0.184 0.232l-0.001 0.001c-0.080 0.061-0.173 0.111-0.273 0.145l-0.007 0.002-0.159 0.084h-0.79l-0.003-0.392h0.588c0.005 0 0.010 0 0.016 0 0.074 0 0.144-0.017 0.206-0.048l-0.003 0.001c0.056-0.030 0.101-0.075 0.13-0.129l0.001-0.002c0.029-0.054 0.046-0.118 0.046-0.186 0-0.003-0-0.006-0-0.008v0c0-0.003 0-0.007 0-0.010 0-0.070-0.016-0.136-0.045-0.195l0.001 0.003c-0.029-0.057-0.075-0.102-0.13-0.13l-0.002-0.001c-0.061-0.029-0.132-0.046-0.207-0.046-0.006 0-0.011 0-0.017 0l0.001-0h-0.407v2.045h-0.502v-2.438zM42.898 25.589l-0.556-1.087 0.531-0.003 0.562 1.067v0.023h-0.537zM45.001 24.951c0-0.001 0-0.002 0-0.004 0-0.041-0.008-0.080-0.021-0.116l0.001 0.002c-0.015-0.039-0.039-0.072-0.070-0.097l-0-0c-0.042-0.034-0.090-0.064-0.142-0.087l-0.004-0.002c-0.065-0.030-0.145-0.061-0.228-0.086l-0.015-0.004c-0.129-0.041-0.233-0.082-0.334-0.128l0.019 0.008c-0.1-0.045-0.185-0.097-0.264-0.158l0.003 0.002c-0.072-0.057-0.131-0.127-0.175-0.206l-0.002-0.004c-0.040-0.077-0.064-0.168-0.064-0.264 0-0.004 0-0.008 0-0.012v0.001c-0-0.002-0-0.005-0-0.008 0-0.098 0.025-0.191 0.068-0.271l-0.002 0.003c0.045-0.084 0.107-0.155 0.187-0.214 0.080-0.061 0.175-0.107 0.285-0.139 0.111-0.032 0.231-0.049 0.363-0.049 0.179 0 0.337 0.033 0.47 0.097s0.238 0.154 0.311 0.266c0.075 0.113 0.112 0.242 0.112 0.387h-0.499c0-0.003 0-0.006 0-0.009 0-0.066-0.017-0.127-0.046-0.181l0.001 0.002c-0.031-0.056-0.076-0.1-0.132-0.128l-0.002-0.001c-0.060-0.030-0.132-0.047-0.207-0.047-0.006 0-0.012 0-0.019 0l0.001-0c-0.005-0-0.011-0-0.017-0-0.072 0-0.141 0.015-0.204 0.042l0.003-0.001c-0.054 0.022-0.099 0.059-0.13 0.105l-0.001 0.001c-0.027 0.040-0.043 0.090-0.043 0.144 0 0.001 0 0.003 0 0.004v-0c0 0.041 0.010 0.079 0.030 0.112 0.025 0.037 0.057 0.069 0.093 0.093l0.001 0.001c0.041 0.029 0.091 0.057 0.152 0.082s0.13 0.051 0.209 0.075c0.133 0.040 0.25 0.085 0.35 0.135s0.186 0.106 0.254 0.169c0.069 0.063 0.119 0.133 0.154 0.213s0.051 0.169 0.051 0.27c0 0.007 0 0.015 0 0.023 0 0.194-0.094 0.366-0.24 0.473l-0.002 0.001c-0.078 0.058-0.171 0.102-0.279 0.132s-0.229 0.046-0.363 0.046c-0.121 0-0.24-0.016-0.357-0.047-0.122-0.033-0.228-0.083-0.324-0.148l0.004 0.002c-0.094-0.064-0.171-0.147-0.226-0.244l-0.002-0.004c-0.057-0.101-0.085-0.219-0.085-0.357h0.504c0 0.076 0.011 0.14 0.035 0.193 0.023 0.051 0.056 0.094 0.098 0.126l0.001 0.001c0.044 0.032 0.095 0.056 0.151 0.070l0.003 0.001c0.060 0.015 0.126 0.022 0.198 0.022 0.005 0 0.012 0 0.018 0 0.070 0 0.138-0.014 0.199-0.038l-0.004 0.001c0.099-0.040 0.167-0.135 0.167-0.246 0-0.001 0-0.003-0-0.004v0z"></path>
</symbol>
<symbol id="icon-logo5" viewBox="0 0 59 32">
<path d="M15.31 25.356c0.14 0.157 0.215 0.352 0.211 0.553 0.007 0.131-0.019 0.262-0.075 0.383s-0.143 0.229-0.252 0.315c-0.239 0.162-0.534 0.258-0.851 0.258-0.035 0-0.070-0.001-0.105-0.004l0.005 0h-1.671v-3.504h1.637c0.029-0.002 0.063-0.003 0.097-0.003 0.301 0 0.581 0.088 0.817 0.239l-0.006-0.004c0.105 0.080 0.189 0.181 0.245 0.294s0.080 0.238 0.073 0.362c0.010 0.193-0.058 0.383-0.19 0.535-0.129 0.138-0.3 0.236-0.492 0.273l-0.006 0.001c0.222 0.037 0.422 0.143 0.565 0.299zM13.349 24.827h0.7c0.159 0.011 0.317-0.030 0.445-0.116 0.051-0.041 0.092-0.093 0.119-0.153l0.001-0.003c0.020-0.045 0.032-0.097 0.032-0.152 0-0.012-0.001-0.025-0.002-0.037l0 0.002c0.001-0.009 0.001-0.019 0.001-0.029 0-0.057-0.012-0.11-0.034-0.159l0.001 0.003c-0.028-0.062-0.067-0.114-0.116-0.156l-0.001-0c-0.113-0.075-0.252-0.12-0.401-0.12-0.020 0-0.040 0.001-0.060 0.002l0.003-0h-0.689v0.919zM14.562 26.171c0.055-0.042 0.098-0.096 0.128-0.158l0.001-0.003c0.024-0.049 0.037-0.107 0.037-0.168 0-0.010-0-0.019-0.001-0.028l0 0.001c0.001-0.007 0.001-0.016 0.001-0.025 0-0.063-0.014-0.122-0.040-0.175l0.001 0.002c-0.032-0.065-0.076-0.119-0.13-0.161l-0.001-0.001c-0.121-0.080-0.269-0.128-0.429-0.128-0.016 0-0.033 0-0.049 0.002l0.002-0h-0.734v0.964h0.743c0.167 0.009 0.333-0.034 0.47-0.122zM18.657 26.863l-0.911-1.37h-0.343v1.369h-0.783v-3.504h1.483c0.032-0.002 0.069-0.004 0.107-0.004 0.348 0 0.67 0.113 0.93 0.304l-0.004-0.003c0.207 0.19 0.333 0.441 0.353 0.707s-0.066 0.529-0.242 0.743c-0.183 0.189-0.433 0.315-0.707 0.357l0.97 1.4h-0.851zM17.403 25.015h0.641c0.445 0 0.667-0.177 0.667-0.531 0.001-0.009 0.001-0.019 0.001-0.029 0-0.066-0.014-0.129-0.038-0.187l0.001 0.003c-0.030-0.071-0.073-0.132-0.127-0.181l-0-0c-0.122-0.090-0.275-0.144-0.441-0.144-0.022 0-0.044 0.001-0.065 0.003l0.003-0h-0.649l0.008 1.066zM22.939 26.157h-1.562l-0.276 0.705h-0.821l1.434-3.465h0.888l1.428 3.465h-0.822l-0.27-0.705zM22.73 25.627l-0.571-1.479-0.57 1.479h1.141zM28.299 26.863h-0.777l-1.744-2.383v2.383h-0.776v-3.505h0.776l1.743 2.397v-2.397h0.778v3.504zM32.737 26.023c-0.169 0.27-0.409 0.482-0.693 0.614l-0.010 0.004c-0.338 0.154-0.714 0.23-1.093 0.221h-1.385v-3.504h1.385c0.019-0.001 0.042-0.001 0.064-0.001 0.372 0 0.726 0.080 1.045 0.223l-0.016-0.006c0.298 0.135 0.543 0.349 0.703 0.611 0.16 0.285 0.243 0.6 0.243 0.919-0.001 0.338-0.091 0.655-0.248 0.928l0.005-0.009zM31.847 25.94c0.211-0.216 0.341-0.511 0.344-0.836v-0c-0.003-0.326-0.133-0.62-0.344-0.836l0 0c-0.242-0.188-0.55-0.301-0.884-0.301-0.031 0-0.063 0.001-0.094 0.003l0.004-0h-0.54v2.269h0.54c0.027 0.002 0.058 0.003 0.090 0.003 0.334 0 0.642-0.113 0.887-0.303l-0.003 0.002zM23.426 3.867s10.038 3.411 9.825 8.349v8.351s-10.031-3.414-9.822-8.351l-0.003-8.349zM42.194 18.611c1.895-1.175 4.089-1.903 6.378-2.116v-2.614c-2.638 0.915-4.875 2.574-6.378 4.73z"></path>
<path d="M41.055 19.399c1.551-2.813 4.242-4.983 7.517-6.065v-7.533s-14.296 4.86-13.994 11.891v11.889s0.637-0.217 1.639-0.625c0-0.38 0-0.763 0.046-1.149 0.296-3.264 2.019-6.289 4.792-8.409z"></path>
<path d="M39.695 23.815c0.084-0.899 0.261-1.726 0.523-2.513l-0.023 0.079c-1.727 1.831-2.772 4.103-2.99 6.497-0.021 0.226-0.032 0.451-0.038 0.685 1.198-0.515 2.101-0.951 2.987-1.418l-0.237 0.114c-0.171-0.73-0.269-1.569-0.269-2.43 0-0.357 0.017-0.709 0.050-1.057l-0.003 0.044zM40.263 23.858c-0.028 0.289-0.044 0.624-0.044 0.963 0 0.763 0.080 1.506 0.233 2.224l-0.012-0.070c3.906-2.104 8.294-5.354 8.125-9.283v-0.343c-2.79 0.282-5.401 1.38-7.431 3.126-0.448 0.989-0.757 2.136-0.868 3.341l-0.003 0.042z"></path>
</symbol>
<symbol id="icon-logo6" viewBox="0 0 59 32">
<path d="M30.589 15.682c-0.219-0.282-0.35-0.64-0.35-1.029 0-0.038 0.001-0.076 0.004-0.114l-0 0.005v-1.65c0-0.506 0.115-0.89 0.345-1.153s0.624-0.394 1.183-0.393c0.526 0 0.898 0.112 1.119 0.336 0.24 0.286 0.357 0.635 0.33 0.987v0.389h-0.939v-0.393c0.003-0.129-0.006-0.257-0.027-0.385-0.016-0.093-0.064-0.172-0.133-0.228l-0.001-0.001c-0.084-0.056-0.188-0.090-0.3-0.090-0.014 0-0.029 0.001-0.043 0.002l0.002-0c-0.012-0.001-0.027-0.001-0.041-0.001-0.118 0-0.228 0.036-0.319 0.097l0.002-0.001c-0.078 0.062-0.133 0.149-0.155 0.249l-0.001 0.003c-0.024 0.113-0.037 0.243-0.037 0.376 0 0.011 0 0.023 0 0.034l-0-0.002v2.003c-0.002 0.023-0.003 0.049-0.003 0.075 0 0.178 0.046 0.346 0.126 0.492l-0.003-0.005c0.049 0.060 0.112 0.107 0.184 0.136l0.003 0.001c0.076 0.029 0.16 0.040 0.243 0.031 0.12 0.009 0.24-0.024 0.333-0.091 0.072-0.060 0.123-0.145 0.14-0.241l0-0.002c0.022-0.133 0.032-0.267 0.029-0.401v-0.406h0.94v0.371c0.002 0.029 0.003 0.062 0.003 0.096 0 0.357-0.124 0.685-0.331 0.944l0.002-0.003c-0.215 0.245-0.583 0.367-1.124 0.367s-0.949-0.131-1.181-0.403zM34.501 15.699c-0.237-0.257-0.356-0.631-0.356-1.127v-1.736c0-0.49 0.119-0.861 0.356-1.113s0.634-0.377 1.191-0.376c0.553 0 0.947 0.126 1.185 0.376 0.238 0.252 0.358 0.623 0.358 1.113v1.736c0 0.49-0.121 0.866-0.362 1.125s-0.634 0.387-1.181 0.387-0.951-0.131-1.191-0.386zM36.129 15.282c0.085-0.161 0.124-0.337 0.113-0.514v-2.126c0.001-0.017 0.002-0.036 0.002-0.056 0-0.164-0.042-0.318-0.115-0.452l0.002 0.005c-0.050-0.062-0.114-0.109-0.188-0.138l-0.003-0.001c-0.055-0.021-0.118-0.034-0.184-0.034-0.023 0-0.045 0.001-0.067 0.004l0.003-0c-0.019-0.002-0.041-0.004-0.063-0.004-0.067 0-0.131 0.012-0.19 0.035l0.004-0.001c-0.078 0.029-0.143 0.076-0.193 0.137l-0.001 0.001c-0.086 0.157-0.125 0.33-0.113 0.503v2.136c-0.012 0.177 0.027 0.353 0.113 0.514 0.055 0.054 0.122 0.097 0.198 0.127 0.072 0.029 0.155 0.046 0.241 0.046s0.17-0.017 0.246-0.047l-0.004 0.002c0.076-0.030 0.143-0.074 0.198-0.127v-0.010zM38.365 11.398h1.011l0.761 3.203 0.778-3.203h0.985l0.099 4.623h-0.728l-0.078-3.213-0.751 3.213h-0.583l-0.778-3.225-0.072 3.225h-0.735l0.091-4.623zM43.133 11.398h1.576c0.907 0 1.362 0.438 1.362 1.313 0 0.838-0.478 1.257-1.434 1.256h-0.537v2.055h-0.973l0.006-4.623zM44.479 13.374c0.096 0.010 0.194 0.003 0.286-0.023 0.093-0.025 0.177-0.067 0.249-0.123 0.090-0.122 0.144-0.276 0.144-0.442 0-0.028-0.002-0.056-0.005-0.083l0 0.003c0.001-0.016 0.001-0.035 0.001-0.053 0-0.13-0.017-0.257-0.050-0.377l0.002 0.010c-0.016-0.049-0.040-0.092-0.072-0.127l0 0c-0.034-0.038-0.075-0.069-0.121-0.092l-0.002-0.001c-0.113-0.047-0.244-0.075-0.382-0.075-0.019 0-0.037 0.001-0.055 0.002l0.003-0h-0.377v1.382h0.377zM47.474 11.398h1.045l1.072 4.623h-0.907l-0.211-1.066h-0.932l-0.218 1.066h-0.92l1.072-4.623zM48.367 14.419l-0.364-1.941-0.364 1.941h0.727zM50.456 11.398h0.681l1.303 2.637v-2.637h0.808v4.623h-0.648l-1.311-2.753v2.753h-0.834l0.002-4.623zM55.139 14.258l-1.083-2.854h0.913l0.661 1.833 0.621-1.833h0.893l-1.070 2.854v1.762h-0.934v-1.762zM32.090 18.042v0.242h-0.794v1.878h-0.332v-1.878h-0.798v-0.242h1.924zM34.578 20.162h-0.257c-0.002 0-0.004 0-0.007 0-0.024 0-0.047-0.008-0.065-0.020l0 0c-0.019-0.012-0.033-0.028-0.043-0.048l-0-0.001-0.23-0.503h-1.101l-0.23 0.503c-0.007 0.022-0.019 0.042-0.034 0.057v0c-0.019 0.013-0.042 0.020-0.066 0.020-0.002 0-0.004-0-0.007-0h-0.257l0.973-2.12h0.338l0.985 2.111zM32.967 19.375h0.918l-0.389-0.863c-0.025-0.054-0.050-0.121-0.070-0.189l-0.003-0.011c-0.014 0.040-0.025 0.079-0.037 0.113l-0.035 0.089-0.385 0.861zM36.255 19.954c0.061 0.003 0.122 0.003 0.183 0 0.053-0.005 0.105-0.013 0.156-0.025 0.056-0.012 0.103-0.025 0.148-0.041l-0.008 0.003c0.043-0.015 0.086-0.034 0.13-0.053v-0.477h-0.389c-0.001 0-0.003 0-0.005 0-0.008 0-0.017-0.001-0.024-0.004l0.001 0c-0.009-0.003-0.017-0.008-0.024-0.013l0 0c-0.006-0.005-0.011-0.010-0.015-0.017l-0-0c-0.003-0.006-0.005-0.012-0.005-0.019 0-0.001 0-0.002 0-0.002v0-0.163h0.755v0.813c-0.118 0.074-0.255 0.133-0.4 0.171l-0.010 0.002c-0.080 0.020-0.161 0.034-0.243 0.043-0.085 0.009-0.184 0.014-0.284 0.014-0 0-0 0-0 0v0c-0.003 0-0.007 0-0.011 0-0.172 0-0.336-0.029-0.489-0.083l0.010 0.003c-0.15-0.052-0.279-0.127-0.391-0.223l0.002 0.001c-0.104-0.092-0.189-0.204-0.249-0.33l-0.003-0.006c-0.056-0.125-0.089-0.272-0.089-0.426 0-0.005 0-0.010 0-0.015v0.001c-0-0.004-0-0.009-0-0.013 0-0.155 0.032-0.303 0.090-0.437l-0.003 0.007c0.056-0.126 0.142-0.24 0.251-0.336 0.111-0.095 0.243-0.17 0.389-0.22 0.167-0.054 0.344-0.081 0.522-0.079 0.091 0 0.181 0.006 0.27 0.018 0.079 0.011 0.157 0.029 0.231 0.054 0.069 0.022 0.134 0.050 0.194 0.084s0.117 0.070 0.17 0.111l-0.093 0.131c-0.008 0.012-0.019 0.022-0.032 0.028l-0 0c-0.013 0.007-0.028 0.011-0.044 0.011h-0c-0.022-0.001-0.043-0.007-0.061-0.017l0.001 0c-0.039-0.019-0.070-0.035-0.1-0.053l0.005 0.003c-0.037-0.020-0.080-0.040-0.125-0.055l-0.006-0.002c-0.050-0.018-0.11-0.034-0.171-0.046l-0.008-0.001c-0.070-0.012-0.151-0.018-0.234-0.018-0.005 0-0.009 0-0.014 0h0.001c-0.003-0-0.008-0-0.012-0-0.13 0-0.255 0.022-0.372 0.061l0.008-0.002c-0.111 0.038-0.206 0.096-0.286 0.169l0.001-0.001c-0.081 0.076-0.143 0.166-0.182 0.263-0.041 0.105-0.065 0.227-0.065 0.354s0.024 0.249 0.068 0.36l-0.002-0.007c0.043 0.099 0.109 0.19 0.195 0.267 0.080 0.073 0.177 0.13 0.284 0.168 0.124 0.037 0.255 0.051 0.385 0.042zM39.357 19.921h1.063v0.242h-1.387v-2.12h0.333l-0.008 1.878zM41.524 20.162h-0.333v-2.12h0.333v2.12zM42.761 18.052c0.020 0.010 0.037 0.023 0.051 0.039l0 0 1.422 1.598c-0.001-0.011-0.001-0.024-0.001-0.038s0.001-0.026 0.002-0.039l-0 0.002v-1.58h0.29v2.129h-0.167c-0.003 0-0.007 0-0.011 0-0.022 0-0.043-0.005-0.062-0.013l0.001 0c-0.020-0.011-0.038-0.024-0.052-0.040l-0-0-1.42-1.597v1.649h-0.278v-2.121h0.173c0.019 0 0.038 0.003 0.055 0.010zM46.974 18.042v0.233h-1.179v0.7h0.955v0.225h-0.955v0.723h1.179v0.233h-1.522v-2.115h1.522zM12.111 4.948l14.773 3.619v12.683l-14.773-3.617v-12.686zM11.164 3.867v14.382l16.666 4.085v-14.38l-16.666-4.086z"></path>
<path d="M20.096 29.010l-16.667-4.088v-14.381l16.667 4.086v14.383z"></path>
<path d="M11.44 4.785l14.58 3.574-6.2 5.352-14.582-3.576 6.202-5.35zM11.164 3.867l-7.735 6.674 16.667 4.086 7.734-6.674-16.666-4.086zM21.034 28.2l6.795-5.865-6.796-1.667v7.533z"></path>
</symbol>
<symbol id="icon-twitter-icn" viewBox="0 0 32 32">
<path d="M32 6.078c-1.1 0.494-2.376 0.858-3.712 1.029l-0.068 0.007c1.36-0.817 2.381-2.078 2.873-3.58l0.013-0.046c-1.197 0.723-2.591 1.274-4.076 1.574l-0.084 0.014c-1.2-1.279-2.901-2.076-4.788-2.076-3.623 0-6.56 2.937-6.56 6.56v0c0 0.52 0.044 1.020 0.152 1.496-5.468-0.276-10.278-2.878-13.495-6.828l-0.027-0.034c-0.563 0.949-0.895 2.091-0.895 3.311 0 2.264 1.145 4.261 2.888 5.442l0.023 0.015c-1.092-0.030-2.109-0.325-2.997-0.823l0.033 0.017v0.072c0.004 3.164 2.237 5.806 5.213 6.438l0.043 0.008c-0.501 0.137-1.075 0.216-1.669 0.216-0.018 0-0.036-0-0.054-0l0.003 0c-0.031 0.001-0.067 0.001-0.103 0.001-0.403 0-0.796-0.041-1.176-0.119l0.037 0.006c0.873 2.624 3.273 4.496 6.121 4.57l0.009 0c-2.214 1.744-5.044 2.798-8.12 2.798-0.005 0-0.010 0-0.015 0h0.001c-0.538 0-1.054-0.024-1.57-0.090 2.826 1.846 6.287 2.944 10.004 2.944 0.021 0 0.042-0 0.063-0h-0.003c12.072 0 18.672-10 18.672-18.668 0-0.29-0.010-0.57-0.024-0.848 1.299-0.937 2.391-2.066 3.258-3.359l0.030-0.047z"></path>
</symbol>
<symbol id="icon-close" viewBox="0 0 32 32">
<path d="M32 3.223l-3.223-3.223-12.777 12.777-12.777-12.777-3.223 3.223 12.777 12.777-12.777 12.777 3.223 3.223 12.777-12.777 12.777 12.777 3.223-3.223-12.777-12.777 12.777-12.777z"></path>
</symbol>
<symbol id="icon-hero-modal-checkbox" viewBox="0 0 18 24">
<path d="M4 1h24c1.657 0 3 1.343 3 3v24c0 1.657-1.343 3-3 3h-24c-1.657 0-3-1.343-3-3v-24c0-1.657 1.343-3 3-3z"></path>
</symbol>
<symbol id="icon-hero-modal-email" viewBox="0 0 18 24">
<path d="M15 6H3C2.175 6 1.5075 6.675 1.5075 7.5L1.5 16.5C1.5 17.325 2.175 18 3 18H15C15.825 18 16.5 17.325 16.5 16.5V7.5C16.5 6.675 15.825 6 15 6ZM14.7 9.1875L9.3975 12.5025C9.1575 12.6525 8.8425 12.6525 8.6025 12.5025L3.3 9.1875C3.1125 9.0675 3 8.865 3 8.6475C3 8.145 3.5475 7.845 3.975 8.1075L9 11.25L14.025 8.1075C14.4525 7.845 15 8.145 15 8.6475C15 8.865 14.8875 9.0675 14.7 9.1875Z"/>
</symbol>
<symbol id="icon-hero-modal-phone" viewBox="0 0 18 24">
<path d="M14.7263 13.8651L12.8881 13.6552C12.4467 13.6046 12.0125 13.7566 11.7013 14.0677L10.3697 15.3993C8.3217 14.3572 6.64276 12.6855 5.60067 10.6303L6.93947 9.29144C7.25065 8.98025 7.40263 8.54605 7.35197 8.1046L7.1421 6.28092C7.05526 5.55 6.44013 5 5.70198 5H4.45002C3.63226 5 2.952 5.68026 3.00266 6.49802C3.38621 12.6783 8.32894 17.6138 14.5019 17.9973C15.3197 18.048 15.9999 17.3677 15.9999 16.55V15.298C16.0072 14.5671 15.4572 13.952 14.7263 13.8651V13.8651Z"/>
</symbol>
<symbol id="icon-hero-modal-person" viewBox="0 0 18 24">
<path d="M9 9C10.6575 9 12 7.6575 12 6C12 4.3425 10.6575 3 9 3C7.3425 3 6 4.3425 6 6C6 7.6575 7.3425 9 9 9ZM9 10.5C6.9975 10.5 3 11.505 3 13.5V14.25C3 14.6625 3.3375 15 3.75 15H14.25C14.6625 15 15 14.6625 15 14.25V13.5C15 11.505 11.0025 10.5 9 10.5Z"/>
</symbol>
<symbol>
<symbol id="icon-send" viewBox="0 0 24 20">
<path d="M38.4 0l-38.4 18 12.272 3.788 18.928-14.788-14.397 16.186 0.012 0.004-0.014-0.004v8.814l6.882-6.691 8.718 2.691 6-28z"></path>
</symbol>
</symbol>
</defs>
</svg>
